<?xml version="1.0" standalone="no"?>
<!DOCTYPE svg PUBLIC "-//W3C//DTD SVG 20010904//EN"
 "http://www.w3.org/TR/2001/REC-SVG-20010904/DTD/svg10.dtd">
<svg version="1.0" xmlns="http://www.w3.org/2000/svg"
 width="128.000000pt" height="128.000000pt" viewBox="0 0 128.000000 128.000000"
 preserveAspectRatio="xMidYMid meet">

<g transform="translate(0.000000,128.000000) scale(0.100000,-0.100000)"
fill="#000000" stroke="none">
<path d="M804 1038 c-27 -12 -68 -87 -83 -148 -18 -69 -50 -133 -80 -157 -15
-12 -84 -51 -153 -86 -102 -54 -149 -71 -254 -96 -71 -17 -143 -39 -161 -47
-38 -20 -65 -71 -71 -136 -4 -40 -1 -50 21 -72 13 -13 49 -33 78 -43 49 -16
106 -18 592 -21 l537 -3 25 25 c23 23 25 32 25 123 0 130 -73 526 -103 560
-13 15 -45 28 -96 39 -42 9 -112 30 -155 45 -88 32 -91 32 -122 17z m113 -60
c32 -12 93 -29 137 -39 85 -19 100 -29 110 -71 l6 -28 -52 21 c-203 81 -227
89 -251 80 -29 -11 -57 -52 -57 -85 0 -28 19 -44 148 -126 l83 -53 57 13 c76
16 94 17 99 4 4 -13 -203 -78 -297 -94 -79 -14 -121 -3 -113 29 3 14 -1 23
-12 27 -23 9 -37 -14 -30 -50 4 -22 -1 -34 -25 -56 -58 -54 -188 -100 -283
-100 l-50 0 7 46 c3 25 8 50 12 55 8 14 34 11 34 -5 0 -17 27 -29 36 -15 3 6
3 20 0 33 -4 18 0 26 19 34 21 10 25 8 30 -9 10 -31 40 -19 40 15 0 36 20 45
35 17 11 -22 35 -28 45 -11 3 5 -1 20 -10 34 -14 21 -14 24 0 30 9 3 25 -3 37
-14 26 -24 37 -25 45 -4 4 10 -1 22 -12 30 -25 18 -13 49 14 34 46 -24 72 3
30 32 -21 13 -21 15 -5 61 9 26 16 53 16 59 0 6 12 37 26 69 31 69 41 71 131
37z m123 -132 c108 -43 136 -58 138 -75 2 -12 0 -21 -5 -21 -4 -1 -34 -7 -65
-14 l-57 -14 -88 55 c-116 73 -118 75 -101 102 7 11 20 21 28 21 9 0 76 -24
150 -54z m170 -225 c0 -18 -46 -36 -147 -56 -66 -13 -88 -47 -118 -179 l-6
-29 -422 6 c-232 3 -432 9 -444 13 -14 4 -23 14 -23 26 0 18 5 18 78 11 138
-14 360 -9 431 11 83 22 149 56 194 99 30 27 42 32 71 29 44 -5 175 21 285 58
105 35 101 34 101 11z m15 -78 c3 -10 9 -55 12 -100 l6 -83 -130 0 -131 0 9
41 c20 90 33 107 91 122 29 8 69 19 88 25 49 14 47 14 55 -5z m-875 -56 l0
-42 -77 3 c-108 3 -186 12 -178 20 7 7 211 59 238 61 14 1 17 -7 17 -42z m382
-166 c290 -1 499 -5 503 -10 3 -5 -2 -17 -11 -26 -15 -15 -65 -16 -538 -13
-494 4 -524 5 -575 24 -30 11 -56 25 -58 30 -2 5 34 6 89 2 51 -3 317 -7 590
-7z"/>
</g>
</svg>
